<?xml version="1.0" encoding="utf-8"?>
<!-- Generator: Adobe Illustrator 24.0.1, SVG Export Plug-In . SVG Version: 6.00 Build 0)  -->
<svg version="1.1" id="Layer_1" xmlns="http://www.w3.org/2000/svg" xmlns:xlink="http://www.w3.org/1999/xlink" x="0px" y="0px"
	 viewBox="0 0 500 500" style="enable-background:new 0 0 500 500;" xml:space="preserve">
<style type="text/css">
	.st0{fill:none;stroke:#B8860B;stroke-width:2.5;}
	.st1{opacity:0.7;fill:none;stroke:#B8860B;stroke-width:2;enable-background:new    ;}
	.st2{fill:#F5A623;}
	.st3{opacity:0.3;fill:none;stroke:#D4890F;stroke-width:2.5;enable-background:new    ;}
	.st4{opacity:0.2;fill:none;stroke:#E8A020;enable-background:new    ;}
	.st5{opacity:0.35;fill:none;stroke:#8B6914;stroke-width:2.5;enable-background:new    ;}
	.st6{opacity:0.35;fill:#8B6914;enable-background:new    ;}
	.st7{opacity:0.25;fill:none;stroke:#8B6914;stroke-width:1.5;enable-background:new    ;}
	.st8{opacity:0.25;fill:#8B6914;enable-background:new    ;}
	.st9{opacity:0.18;fill:none;stroke:#8B6914;enable-background:new    ;}
	.st10{opacity:0.18;fill:#8B6914;enable-background:new    ;}
	.st11{opacity:0.3;fill:none;stroke:#8B6914;stroke-width:2;enable-background:new    ;}
	.st12{opacity:0.2;fill:none;stroke:#8B6914;enable-background:new    ;}
	.st13{opacity:0.2;fill:#8B6914;enable-background:new    ;}
	.st14{opacity:0.15;fill:none;stroke:#8B6914;stroke-width:0.8;enable-background:new    ;}
	.st15{opacity:0.15;fill:#8B6914;enable-background:new    ;}
	.st16{fill:#1A2744;}
	.st17{fill:none;stroke:#F5A623;stroke-width:4.5;stroke-linecap:round;}
	.st18{fill:none;stroke:#1A2744;stroke-width:4;stroke-linecap:round;stroke-linejoin:round;}
</style>
<circle class="st0" cx="250" cy="250" r="248"/>
<line class="st1" x1="250" y1="2" x2="250" y2="16"/>
<line class="st1" x1="267.3" y1="2.6" x2="266.3" y2="16.6"/>
<line class="st1" x1="284.5" y1="4.4" x2="282.6" y2="18.3"/>
<line class="st1" x1="301.6" y1="7.4" x2="298.7" y2="21.1"/>
<line class="st1" x1="318.4" y1="11.6" x2="314.5" y2="25.1"/>
<line class="st1" x1="334.8" y1="17" x2="330" y2="30.1"/>
<line class="st1" x1="350.9" y1="23.4" x2="345.2" y2="36.2"/>
<line class="st1" x1="366.4" y1="31" x2="359.9" y2="43.4"/>
<line class="st1" x1="381.4" y1="39.7" x2="374" y2="51.6"/>
<line class="st1" x1="395.8" y1="49.4" x2="387.5" y2="60.7"/>
<line class="st1" x1="409.4" y1="60" x2="400.4" y2="70.7"/>
<line class="st1" x1="422.3" y1="71.6" x2="412.6" y2="81.7"/>
<line class="st1" x1="434.3" y1="84.1" x2="423.9" y2="93.4"/>
<line class="st1" x1="445.4" y1="97.3" x2="434.4" y2="105.9"/>
<line class="st1" x1="455.6" y1="111.3" x2="444" y2="119.1"/>
<line class="st1" x1="464.8" y1="126" x2="452.6" y2="133"/>
<line class="st1" x1="472.9" y1="141.3" x2="460.3" y2="147.4"/>
<line class="st1" x1="479.9" y1="157.1" x2="467" y2="162.3"/>
<line class="st1" x1="485.9" y1="173.4" x2="472.5" y2="177.7"/>
<line class="st1" x1="490.6" y1="190" x2="477" y2="193.4"/>
<line class="st1" x1="494.2" y1="206.9" x2="480.4" y2="209.4"/>
<line class="st1" x1="496.6" y1="224.1" x2="482.7" y2="225.5"/>
<line class="st1" x1="497.8" y1="241.3" x2="483.9" y2="241.8"/>
<line class="st1" x1="497.8" y1="258.7" x2="483.9" y2="258.2"/>
<line class="st1" x1="496.6" y1="275.9" x2="482.7" y2="274.5"/>
<line class="st1" x1="494.2" y1="293.1" x2="480.4" y2="290.6"/>
<line class="st1" x1="490.6" y1="310" x2="477" y2="306.6"/>
<line class="st1" x1="485.9" y1="326.6" x2="472.5" y2="322.3"/>
<line class="st1" x1="479.9" y1="342.9" x2="467" y2="337.7"/>
<line class="st1" x1="472.9" y1="358.7" x2="460.3" y2="352.6"/>
<line class="st1" x1="464.8" y1="374" x2="452.6" y2="367"/>
<line class="st1" x1="455.6" y1="388.7" x2="444" y2="380.9"/>
<line class="st1" x1="445.4" y1="402.7" x2="434.4" y2="394.1"/>
<line class="st1" x1="434.3" y1="415.9" x2="423.9" y2="406.6"/>
<line class="st1" x1="422.3" y1="428.4" x2="412.6" y2="418.3"/>
<line class="st1" x1="409.4" y1="440" x2="400.4" y2="429.3"/>
<line class="st1" x1="395.8" y1="450.6" x2="387.5" y2="439.3"/>
<line class="st1" x1="381.4" y1="460.3" x2="374" y2="448.4"/>
<line class="st1" x1="366.4" y1="469" x2="359.9" y2="456.6"/>
<line class="st1" x1="350.9" y1="476.6" x2="345.2" y2="463.8"/>
<line class="st1" x1="334.8" y1="483" x2="330" y2="469.9"/>
<line class="st1" x1="318.4" y1="488.4" x2="314.5" y2="474.9"/>
<line class="st1" x1="301.6" y1="492.6" x2="298.7" y2="478.9"/>
<line class="st1" x1="284.5" y1="495.6" x2="282.6" y2="481.7"/>
<line class="st1" x1="267.3" y1="497.4" x2="266.3" y2="483.4"/>
<line class="st1" x1="250" y1="498" x2="250" y2="484"/>
<line class="st1" x1="232.7" y1="497.4" x2="233.7" y2="483.4"/>
<line class="st1" x1="215.5" y1="495.6" x2="217.4" y2="481.7"/>
<line class="st1" x1="198.4" y1="492.6" x2="201.3" y2="478.9"/>
<line class="st1" x1="181.6" y1="488.4" x2="185.5" y2="474.9"/>
<line class="st1" x1="165.2" y1="483" x2="170" y2="469.9"/>
<line class="st1" x1="149.1" y1="476.6" x2="154.8" y2="463.8"/>
<line class="st1" x1="133.6" y1="469" x2="140.1" y2="456.6"/>
<line class="st1" x1="118.6" y1="460.3" x2="126" y2="448.4"/>
<line class="st1" x1="104.2" y1="450.6" x2="112.5" y2="439.3"/>
<line class="st1" x1="90.6" y1="440" x2="99.6" y2="429.3"/>
<line class="st1" x1="77.7" y1="428.4" x2="87.4" y2="418.3"/>
<line class="st1" x1="65.7" y1="415.9" x2="76.1" y2="406.6"/>
<line class="st1" x1="54.6" y1="402.7" x2="65.6" y2="394.1"/>
<line class="st1" x1="44.4" y1="388.7" x2="56" y2="380.9"/>
<line class="st1" x1="35.2" y1="374" x2="47.4" y2="367"/>
<line class="st1" x1="27.1" y1="358.7" x2="39.7" y2="352.6"/>
<line class="st1" x1="20.1" y1="342.9" x2="33" y2="337.7"/>
<line class="st1" x1="14.1" y1="326.6" x2="27.5" y2="322.3"/>
<line class="st1" x1="9.4" y1="310" x2="23" y2="306.6"/>
<line class="st1" x1="5.8" y1="293.1" x2="19.6" y2="290.6"/>
<line class="st1" x1="3.4" y1="275.9" x2="17.3" y2="274.5"/>
<line class="st1" x1="2.2" y1="258.7" x2="16.1" y2="258.2"/>
<line class="st1" x1="2.2" y1="241.3" x2="16.1" y2="241.8"/>
<line class="st1" x1="3.4" y1="224.1" x2="17.3" y2="225.5"/>
<line class="st1" x1="5.8" y1="206.9" x2="19.6" y2="209.4"/>
<line class="st1" x1="9.4" y1="190" x2="23" y2="193.4"/>
<line class="st1" x1="14.1" y1="173.4" x2="27.5" y2="177.7"/>
<line class="st1" x1="20.1" y1="157.1" x2="33" y2="162.3"/>
<line class="st1" x1="27.1" y1="141.3" x2="39.7" y2="147.4"/>
<line class="st1" x1="35.2" y1="126" x2="47.4" y2="133"/>
<line class="st1" x1="44.4" y1="111.3" x2="56" y2="119.1"/>
<line class="st1" x1="54.6" y1="97.3" x2="65.6" y2="105.9"/>
<line class="st1" x1="65.7" y1="84.1" x2="76.1" y2="93.4"/>
<line class="st1" x1="77.7" y1="71.6" x2="87.4" y2="81.7"/>
<line class="st1" x1="90.6" y1="60" x2="99.6" y2="70.7"/>
<line class="st1" x1="104.2" y1="49.4" x2="112.5" y2="60.7"/>
<line class="st1" x1="118.6" y1="39.7" x2="126" y2="51.6"/>
<line class="st1" x1="133.6" y1="31" x2="140.1" y2="43.4"/>
<line class="st1" x1="149.1" y1="23.4" x2="154.8" y2="36.2"/>
<line class="st1" x1="165.2" y1="17" x2="170" y2="30.1"/>
<line class="st1" x1="181.6" y1="11.6" x2="185.5" y2="25.1"/>
<line class="st1" x1="198.4" y1="7.4" x2="201.3" y2="21.1"/>
<line class="st1" x1="215.5" y1="4.4" x2="217.4" y2="18.3"/>
<line class="st1" x1="232.7" y1="2.6" x2="233.7" y2="16.6"/>
<circle class="st2" cx="250" cy="250" r="230"/>
<circle class="st3" cx="250" cy="250" r="218"/>
<circle class="st4" cx="250" cy="250" r="212"/>
<line class="st5" x1="250" y1="28" x2="250" y2="86"/>
<path class="st6" d="M246,20h8c1.1,0,2,0.9,2,2v8c0,1.1-0.9,2-2,2h-8c-1.1,0-2-0.9-2-2v-8C244,20.9,244.9,20,246,20z"/>
<line class="st5" x1="250" y1="414" x2="250" y2="472"/>
<path class="st6" d="M246,468h8c1.1,0,2,0.9,2,2v8c0,1.1-0.9,2-2,2h-8c-1.1,0-2-0.9-2-2v-8C244,468.9,244.9,468,246,468z"/>
<line class="st5" x1="28" y1="250" x2="86" y2="250"/>
<path class="st6" d="M22,244h8c1.1,0,2,0.9,2,2v8c0,1.1-0.9,2-2,2h-8c-1.1,0-2-0.9-2-2v-8C20,244.9,20.9,244,22,244z"/>
<line class="st5" x1="414" y1="250" x2="472" y2="250"/>
<path class="st6" d="M470,244h8c1.1,0,2,0.9,2,2v8c0,1.1-0.9,2-2,2h-8c-1.1,0-2-0.9-2-2v-8C468,244.9,468.9,244,470,244z"/>
<line class="st7" x1="218" y1="34" x2="218" y2="92"/>
<circle class="st8" cx="218" cy="34" r="4"/>
<line class="st7" x1="282" y1="34" x2="282" y2="92"/>
<circle class="st8" cx="282" cy="34" r="4"/>
<line class="st7" x1="218" y1="408" x2="218" y2="466"/>
<circle class="st8" cx="218" cy="466" r="4"/>
<line class="st7" x1="282" y1="408" x2="282" y2="466"/>
<circle class="st8" cx="282" cy="466" r="4"/>
<line class="st7" x1="34" y1="218" x2="92" y2="218"/>
<circle class="st8" cx="34" cy="218" r="4"/>
<line class="st7" x1="34" y1="282" x2="92" y2="282"/>
<circle class="st8" cx="34" cy="282" r="4"/>
<line class="st7" x1="408" y1="218" x2="466" y2="218"/>
<circle class="st8" cx="466" cy="218" r="4"/>
<line class="st7" x1="408" y1="282" x2="466" y2="282"/>
<circle class="st8" cx="466" cy="282" r="4"/>
<line class="st9" x1="196" y1="42" x2="196" y2="86"/>
<circle class="st10" cx="196" cy="42" r="3"/>
<line class="st9" x1="304" y1="42" x2="304" y2="86"/>
<circle class="st10" cx="304" cy="42" r="3"/>
<line class="st9" x1="196" y1="414" x2="196" y2="458"/>
<circle class="st10" cx="196" cy="458" r="3"/>
<line class="st9" x1="304" y1="414" x2="304" y2="458"/>
<circle class="st10" cx="304" cy="458" r="3"/>
<line class="st9" x1="42" y1="196" x2="86" y2="196"/>
<circle class="st10" cx="42" cy="196" r="3"/>
<line class="st9" x1="42" y1="304" x2="86" y2="304"/>
<circle class="st10" cx="42" cy="304" r="3"/>
<line class="st9" x1="414" y1="196" x2="458" y2="196"/>
<circle class="st10" cx="458" cy="196" r="3"/>
<line class="st9" x1="414" y1="304" x2="458" y2="304"/>
<circle class="st10" cx="458" cy="304" r="3"/>
<line class="st11" x1="100" y1="100" x2="128" y2="128"/>
<path class="st7" d="M92,100V78H72"/>
<circle class="st8" cx="72" cy="78" r="4"/>
<line class="st11" x1="400" y1="100" x2="372" y2="128"/>
<path class="st7" d="M408,100V78h20"/>
<circle class="st8" cx="428" cy="78" r="4"/>
<line class="st11" x1="100" y1="400" x2="128" y2="372"/>
<path class="st7" d="M92,400v22H72"/>
<circle class="st8" cx="72" cy="422" r="4"/>
<line class="st11" x1="400" y1="400" x2="372" y2="372"/>
<path class="st7" d="M408,400v22h20"/>
<circle class="st8" cx="428" cy="422" r="4"/>
<line class="st12" x1="118" y1="64" x2="138" y2="84"/>
<circle class="st13" cx="114" cy="60" r="3"/>
<line class="st12" x1="382" y1="64" x2="362" y2="84"/>
<circle class="st13" cx="386" cy="60" r="3"/>
<line class="st12" x1="118" y1="436" x2="138" y2="416"/>
<circle class="st13" cx="114" cy="440" r="3"/>
<line class="st12" x1="382" y1="436" x2="362" y2="416"/>
<circle class="st13" cx="386" cy="440" r="3"/>
<line class="st14" x1="66" y1="148" x2="90" y2="148"/>
<circle class="st15" cx="60" cy="148" r="2.5"/>
<line class="st14" x1="66" y1="352" x2="90" y2="352"/>
<circle class="st15" cx="60" cy="352" r="2.5"/>
<line class="st14" x1="410" y1="148" x2="434" y2="148"/>
<circle class="st15" cx="440" cy="148" r="2.5"/>
<line class="st14" x1="410" y1="352" x2="434" y2="352"/>
<circle class="st15" cx="440" cy="352" r="2.5"/>
<line class="st14" x1="148" y1="66" x2="148" y2="90"/>
<circle class="st15" cx="148" cy="60" r="2.5"/>
<line class="st14" x1="352" y1="66" x2="352" y2="90"/>
<circle class="st15" cx="352" cy="60" r="2.5"/>
<line class="st14" x1="148" y1="410" x2="148" y2="434"/>
<circle class="st15" cx="148" cy="440" r="2.5"/>
<line class="st14" x1="352" y1="410" x2="352" y2="434"/>
<circle class="st15" cx="352" cy="440" r="2.5"/>
<path class="st16" d="M194.6,105.5h111.8c13.9,0,25.1,11.2,25.1,25.1v239.9c0,13.9-11.2,25.1-25.1,25.1H194.6
	c-13.9,0-25.1-11.2-25.1-25.1V130.6C169.5,116.7,180.7,105.5,194.6,105.5z"/>
<path class="st2" d="M195.9,141.9h109.3c4.2,0,7.5,3.4,7.5,7.5v180.8c0,4.2-3.4,7.5-7.5,7.5H195.9c-4.2,0-7.5-3.4-7.5-7.5V149.4
	C188.3,145.2,191.7,141.9,195.9,141.9z"/>
<circle class="st2" cx="249.9" cy="367.9" r="15.1"/>
<line class="st17" x1="222.2" y1="123" x2="278.8" y2="123"/>
<path class="st18" d="M204.7,239.8h17.6l7.5-45.2l20.1,86.7l20.1-79.1l7.5,37.7h17.6"/>
</svg>
